Coordinates
version=1
nRows=10
nColumns=33
inDegrees=yes

Units are S.I. units (second, meters, Newtons, ...)
Angles are in degrees.

endheader
time	ground_thorax_rot_x	ground_thorax_rot_y	ground_thorax_rot_z	ground_thorax_tx	ground_thorax_ty	ground_thorax_tz	clav_prot_r	clav_elev_r	scapula_abduction_r	scapula_elevation_r	scapula_upward_rot_r	scapula_winging_r	shoulder_elv_r	plane_of_elev_r	axial_rot_r	elbow_flexion_r	pro_sup_r	wrist_flex_r	wrist_dev_r	clav_prot_l	clav_elev_l	scapula_abduction_l	scapula_elevation_l	scapula_upward_rot_l	scapula_winging_l	shoulder_elv_l	plane_of_elev_l	axial_rot_l	elbow_flexion_l	pro_sup_l	wrist_flex_l	wrist_dev_l
      2.79000000	     28.81843413	     29.30614021	     42.44537936	    -27.08524286	    797.22520544	    -44.16053421	     13.21386406	     35.37041964	     27.56799226	     45.00000000	    -45.00000000	  -5126.91797168	  -1726.55856081	     20.62612385	   -153.57792663	   1801.15164957	   -185.62106455	     13.69866706	     12.98706359	    -10.58068997	    -45.00000000	    -36.77830267	     45.00000000	    -45.00000000	  -3857.07325458	  -1890.62046875	    136.48593496	   -136.29279581	    350.21875037	   -311.68627392	     11.74050978	    -17.20367873
      2.80000000	     28.95430011	     29.10623148	     42.14243858	    -30.38002428	    798.76084293	    -44.33517123	     13.22152471	     35.36380419	     27.54899097	     45.00000000	    -45.00000000	  -5127.09255973	  -1726.50328663	     20.64825347	   -153.68091409	   1801.14374937	   -185.75053336	     13.74969039	     13.02984720	    -10.46976217	    -45.00000000	    -36.89552184	     45.00000000	    -45.00000000	  -3856.91554741	  -1890.47440906	    136.47453336	   -136.35671573	    350.18227171	   -311.87481945	     11.83096210	    -17.27286679
      2.81000000	     29.06582227	     28.91224195	     41.89090684	    -33.62878352	    800.38409801	    -44.51330751	     13.23154605	     35.29611923	     27.50457113	     45.00000000	    -45.00000000	  -5127.26914492	  -1726.43616509	     20.68858948	   -153.86733789	   1801.10545426	   -185.96394568	     13.80547416	     13.08020307	    -10.28038687	    -45.00000000	    -37.01576861	     45.00000000	    -45.00000000	  -3856.70765382	  -1890.35194048	    136.47334387	   -136.42424481	    350.17174096	   -312.09688928	     11.91897815	    -17.34862506
      2.82000000	     29.21363288	     28.69258435	     41.52768116	    -36.82400531	    802.09074977	    -44.69530547	     13.24656982	     35.24400126	     27.46726526	     45.00000000	    -45.00000000	  -5127.41494530	  -1726.37437990	     20.76142289	   -153.97596534	   1801.10137083	   -186.25509040	     13.84545891	     13.13282314	    -10.12659592	    -45.00000000	    -37.17169780	     45.00000000	    -45.00000000	  -3856.55802339	  -1890.21807412	    136.43635992	   -136.43203921	    350.11520455	   -312.34635177	     12.01460714	    -17.40381829
      2.83000000	     29.34836686	     28.54345029	     41.21741200	    -39.96441159	    803.87510361	    -44.88385008	     13.25889439	     35.20713688	     27.44483138	     45.00000000	    -45.00000000	  -5127.59686837	  -1726.32271285	     20.77693490	   -154.13766731	   1801.10615101	   -186.64381926	     13.88862337	     13.16892951	     -9.96911901	    -45.00000000	    -37.29999687	     45.00000000	    -45.00000000	  -3856.40124705	  -1890.08223901	    136.41826016	   -136.42684148	    350.09288437	   -312.62188592	     12.09855862	    -17.46318866
      2.84000000	     29.48184691	     28.36598611	     40.89644258	    -43.04378612	    805.72783460	    -45.07977844	     13.25401803	     35.16827024	     27.41267139	     45.00000000	    -45.00000000	  -5127.75914124	  -1726.27889819	     20.82859572	   -154.32526079	   1801.09246348	   -187.11545329	     13.93614446	     13.20863961	     -9.79575873	    -45.00000000	    -37.44681225	     45.00000000	    -45.00000000	  -3856.22438598	  -1889.95741649	    136.39377589	   -136.45317748	    350.04860027	   -312.91475675	     12.19016013	    -17.52143774
      2.85000000	     29.61379931	     28.20115078	     40.57043063	    -46.05789676	    807.64095762	    -45.28399311	     13.25154758	     35.15154830	     27.40495816	     45.00000000	    -45.00000000	  -5127.93345244	  -1726.24028337	     20.85717383	   -154.52629775	   1801.08875867	   -187.65341691	     13.98908736	     13.23236531	     -9.63760406	    -45.00000000	    -37.59117221	     45.00000000	    -45.00000000	  -3856.07681605	  -1889.82085928	    136.36407737	   -136.40251778	    350.01306032	   -313.22263147	     12.26791255	    -17.57299260
      2.86000000	     29.75261451	     28.06288155	     40.26128490	    -49.00254484	    809.60807627	    -45.49602552	     13.27073630	     35.11576793	     27.41151312	     45.00000000	    -45.00000000	  -5128.11206149	  -1726.21234970	     20.88837638	   -154.74799701	   1801.11009841	   -188.25030389	     14.03747761	     13.25355157	     -9.49240697	    -45.00000000	    -37.72699541	     45.00000000	    -45.00000000	  -3855.90617847	  -1889.65438364	    136.33898966	   -136.37448662	    349.97539299	   -313.54316334	     12.35275000	    -17.63648630
      2.87000000	     29.88711976	     27.88017120	     39.91666953	    -51.87000987	    811.62099427	    -45.71527947	     13.28199442	     35.04406267	     27.37702149	     45.00000000	    -45.00000000	  -5128.26124802	  -1726.14434785	     20.94685323	   -154.93924206	   1801.06390357	   -188.90542953	     14.10410496	     13.27692266	     -9.30902360	    -45.00000000	    -37.88732904	     45.00000000	    -45.00000000	  -3855.76355819	  -1889.53588826	    136.31408432	   -136.33440854	    349.95615765	   -313.88620585	     12.42168779	    -17.69555739
      2.88000000	     30.02181080	     27.71601515	     39.59193461	    -54.66027281	    813.67818377	    -45.94119793	     13.30655667	     34.98986208	     27.37501498	     45.00000000	    -45.00000000	  -5128.42374659	  -1726.10429467	     20.99775721	   -155.16119996	   1801.04770331	   -189.60310869	     14.16922202	     13.29590099	     -9.16382166	    -45.00000000	    -38.02962465	     45.00000000	    -45.00000000	  -3855.61358367	  -1889.38887885	    136.29265832	   -136.29207685	    349.93297675	   -314.23800433	     12.49355735	    -17.76516580
